<?xml version="1.0" encoding="UTF-8" standalone="no"?>
<!-- Created with Inkscape (http://www.inkscape.org/) -->

<svg
   width="50"
   height="50"
   viewBox="0 0 13.229166 13.229167"
   version="1.1"
   id="svg1"
   xmlns="http://www.w3.org/2000/svg"
   xmlns:svg="http://www.w3.org/2000/svg">
  <defs
     id="defs1" />
  <g
     id="layer1">
    <path
       id="path2"
       style="fill:#000000;fill-rule:nonzero;stroke:#000000;stroke-width:0.0580205"
       d="M 1.9515876,0.48188579 3.1449149,11.314192 a 0.57852499,0.57852499 41.856716 0 0 0.5750461,0.515176 l 0.370728,0 a 0.35220415,0.35220415 42.978519 0 1 0.3513277,0.327372 l 0.047942,0.67829 a 0.39067613,0.39067613 40.948653 0 0 0.4173624,0.362151 l 2.1706926,-0.154063 a 0.31229418,0.31229418 130.93608 0 0 0.289398,-0.333666 L 7.3248959,12.111665 A 0.26359696,0.26359696 132.96594 0 1 7.5878287,11.829368 H 8.1516944 A 0.43099034,0.43099034 137.80056 0 0 8.580627,11.440443 L 9.1100353,6.0422046 A 0.67854579,0.67854579 137.80056 0 1 9.7853414,5.4298865 H 10.985119 A 0.65445509,0.65445509 135 0 0 11.639574,4.7754314 V 0.58618961 A 0.58187111,0.58187111 45 0 0 11.057703,0.0043185 H 9.1700857 4.6731329 2.3794334 A 0.43043419,0.43043419 131.85672 0 0 1.9515876,0.48188579 Z" />
  </g>
</svg>
