<?xml version="1.0" encoding="UTF-8" standalone="no"?>
<!-- Created with Inkscape (http://www.inkscape.org/) -->

<svg
   width="50"
   height="50"
   viewBox="0 0 13.229166 13.229167"
   version="1.1"
   id="svg1"
   xmlns="http://www.w3.org/2000/svg"
   xmlns:svg="http://www.w3.org/2000/svg">
  <defs
     id="defs1" />
  <g
     id="layer1">
    <path
       id="rect1"
       style="fill:#ffffff;stroke:none;stroke-width:1.27382;stroke-linecap:round"
       d="M 0,0.25289029 V 1.4949992 a 0.1984375,0.1984375 45 0 0 0.1984375,0.1984375 h 0.27843261 a 0.18458821,0.18458821 45 0 1 0.18458821,0.1845882 l 0,9.4258851 A 0.23182049,0.23182049 135 0 1 0.42963783,11.53573 0.42736248,0.42736248 134.33891 0 0 0.0072347,11.967995 v 0.961198 a 0.29997327,0.29997327 45 0 0 0.29997327,0.299973 H 12.952964 a 0.28343681,0.28343681 135 0 0 0.283437,-0.283437 V 11.835703 A 0.29997327,0.29997327 45 0 0 12.936428,11.53573 h -0.1369 a 0.23182049,0.23182049 45 0 1 -0.23182,-0.23182 V 1.8836059 a 0.19016924,0.19016924 135 0 1 0.190169,-0.1901692 h 0.260604 a 0.21068482,0.21068482 135 0 0 0.210685,-0.2106848 l 0,-1.22986161 A 0.25289029,0.25289029 45 0 0 12.976276,0 H 0.25289029 A 0.25289029,0.25289029 135 0 0 0,0.25289029 Z M 2.2406901,1.6934367 H 2.5941052 A 0.16748331,0.16748331 45 0 1 2.7615885,1.86092 l 0,1.157397 A 0.2672705,0.2672705 45 0 0 3.028859,3.2855875 h 0.8568469 a 0.34718556,0.34718556 33.02391 0 1 0.3172876,0.2062372 l 0.087665,0.1973422 a 0.21750666,0.21750666 33.02391 0 0 0.198776,0.1292046 H 8.7862407 A 0.20149655,0.20149655 144.94467 0 0 8.9757183,3.685425 l 0.067881,-0.1876275 a 0.32163011,0.32163011 144.94467 0 1 0.3024453,-0.21221 H 10.200308 A 0.2672705,0.2672705 135 0 0 10.467578,3.018317 V 1.8588012 a 0.16536455,0.16536455 135 0 1 0.165365,-0.1653645 h 0.330728 a 0.16536455,0.16536455 45 0 1 0.165365,0.1653645 v 9.5040198 a 0.17290928,0.17290928 135 0 1 -0.172909,0.172909 h -0.296881 a 0.1844332,0.1844332 45 0 1 -0.184433,-0.184433 l 0,-1.7330728 A 0.17487308,0.17487308 45 0 0 10.29994,9.4433511 H 9.3143668 A 0.24919908,0.24919908 144.94111 0 0 9.0800215,9.6078006 L 9.0118665,9.7962595 A 0.32269212,0.32269212 144.94111 0 1 8.7084089,10.009208 l -4.1266731,0 A 0.34825288,0.34825288 33.033321 0 1 4.2634264,9.8022322 L 4.1722535,9.5968117 A 0.25820943,0.25820943 33.033321 0 0 3.9362455,9.4433511 l -0.9995256,0 A 0.16789674,0.16789674 135 0 0 2.7688232,9.6112478 V 11.351297 A 0.1844332,0.1844332 135 0 1 2.58439,11.53573 l -0.3113505,0 A 0.17290928,0.17290928 45 0 1 2.1001302,11.362821 l 0,-9.5288244 A 0.14055989,0.14055989 135 0 1 2.2406901,1.6934367 Z" />
  </g>
</svg>
