<?xml version="1.0" encoding="UTF-8" standalone="no"?>
<!-- Created with Inkscape (http://www.inkscape.org/) -->

<svg
   width="50"
   height="50"
   viewBox="0 0 13.229166 13.229167"
   version="1.1"
   id="svg1"
   xml:space="preserve"
   inkscape:version="1.3.2 (091e20e, 2023-11-25, custom)"
   sodipodi:docname="springIcon.svg"
   inkscape:export-filename="springIconPro.svg"
   inkscape:export-xdpi="96"
   inkscape:export-ydpi="96"
   xmlns:inkscape="http://www.inkscape.org/namespaces/inkscape"
   xmlns:sodipodi="http://sodipodi.sourceforge.net/DTD/sodipodi-0.dtd"
   xmlns="http://www.w3.org/2000/svg"
   xmlns:svg="http://www.w3.org/2000/svg"><sodipodi:namedview
     id="namedview1"
     pagecolor="#505050"
     bordercolor="#ffffff"
     borderopacity="1"
     inkscape:showpageshadow="0"
     inkscape:pageopacity="0"
     inkscape:pagecheckerboard="true"
     inkscape:deskcolor="#505050"
     inkscape:document-units="px"
     inkscape:zoom="11.822492"
     inkscape:cx="17.593583"
     inkscape:cy="29.900633"
     inkscape:window-width="3440"
     inkscape:window-height="1369"
     inkscape:window-x="1912"
     inkscape:window-y="-8"
     inkscape:window-maximized="1"
     inkscape:current-layer="layer1" /><defs
     id="defs1"><inkscape:path-effect
       effect="spiro"
       id="path-effect2"
       is_visible="true"
       lpeversion="1" /></defs><g
     inkscape:label="Layer 1"
     inkscape:groupmode="layer"
     id="layer1"><path
       id="path10"
       style="opacity:1;fill:#ffffff;fill-opacity:1;stroke:#ffffff;stroke-width:1.23194;stroke-linecap:round;stroke-dasharray:none;stroke-opacity:1"
       d="M 1.6381643,0.62663043 H 11.78963 M 11.680957,12.592294 H 1.6475233 M 1.6560947,3.8691962 11.7717,2.8645964 M 1.5567807,7.111762 C 11.7717,6.1071624 11.7717,6.1071624 11.7717,6.1071624 M 1.5567808,10.354328 c 10.1156052,-1.0046 10.1156052,-1.0046 10.1156052,-1.0046 m -10.1156052,1.0046 c 4.9584885,1.894713 10.1134712,2.238018 10.1156052,2.237966 M 1.5567807,7.1117621 C 6.5152692,9.0064753 11.670252,9.3497801 11.672386,9.3497281 M 1.6560947,3.8691963 C 6.6145832,5.7639095 11.769566,6.1072143 11.7717,6.1071623 M 1.6562296,0.62683512 C 6.6147132,2.5215464 11.769757,2.8644766 11.771891,2.8644246 Z" /></g></svg>
