<?xml version="1.0" encoding="UTF-8" standalone="no"?>
<!-- Created with Inkscape (http://www.inkscape.org/) -->

<svg
   width="50"
   height="50"
   viewBox="0 0 13.229166 13.229167"
   version="1.1"
   id="svg1"
   xml:space="preserve"
   xmlns="http://www.w3.org/2000/svg"
   xmlns:svg="http://www.w3.org/2000/svg"><defs
     id="defs1" /><g
     id="layer1"><path
       id="path10"
       style="opacity:1;fill:#ffffff;fill-opacity:1;stroke:#ffffff;stroke-width:1.23194;stroke-linecap:round;stroke-dasharray:none;stroke-opacity:1"
       d="M 1.6381643,0.62663043 H 11.78963 M 11.680957,12.592294 H 1.6475233 M 1.6560947,3.8691962 11.7717,2.8645964 M 1.5567807,7.111762 C 11.7717,6.1071624 11.7717,6.1071624 11.7717,6.1071624 M 1.5567808,10.354328 c 10.1156052,-1.0046 10.1156052,-1.0046 10.1156052,-1.0046 m -10.1156052,1.0046 c 4.9584885,1.894713 10.1134712,2.238018 10.1156052,2.237966 M 1.5567807,7.1117621 C 6.5152692,9.0064753 11.670252,9.3497801 11.672386,9.3497281 M 1.6560947,3.8691963 C 6.6145832,5.7639095 11.769566,6.1072143 11.7717,6.1071623 M 1.6562296,0.62683512 C 6.6147132,2.5215464 11.769757,2.8644766 11.771891,2.8644246 Z" /></g></svg>
