<?xml version="1.0" encoding="UTF-8" standalone="no"?>
<!-- Created with Inkscape (http://www.inkscape.org/) -->

<svg
   width="200"
   height="200"
   viewBox="0 0 52.916665 52.916666"
   version="1.1"
   id="svg1"
   inkscape:version="1.3.2 (091e20e, 2023-11-25, custom)"
   sodipodi:docname="MoldIQLogo_sm.svg"
   inkscape:export-filename="MoldIQLogo_sm.png"
   inkscape:export-xdpi="96"
   inkscape:export-ydpi="96"
   xmlns:inkscape="http://www.inkscape.org/namespaces/inkscape"
   xmlns:sodipodi="http://sodipodi.sourceforge.net/DTD/sodipodi-0.dtd"
   xmlns="http://www.w3.org/2000/svg"
   xmlns:svg="http://www.w3.org/2000/svg">
  <sodipodi:namedview
     id="namedview1"
     pagecolor="#505050"
     bordercolor="#ffffff"
     borderopacity="1"
     inkscape:showpageshadow="0"
     inkscape:pageopacity="0"
     inkscape:pagecheckerboard="1"
     inkscape:deskcolor="#505050"
     inkscape:document-units="mm"
     inkscape:zoom="4"
     inkscape:cx="131"
     inkscape:cy="95.625"
     inkscape:window-width="3440"
     inkscape:window-height="1369"
     inkscape:window-x="1912"
     inkscape:window-y="-8"
     inkscape:window-maximized="1"
     inkscape:current-layer="layer1" />
  <defs
     id="defs1" />
  <g
     inkscape:label="Layer 1"
     inkscape:groupmode="layer"
     id="layer1">
    <path
       id="text1"
       style="font-size:35.2778px;font-family:'Copperplate Gothic Bold';-inkscape-font-specification:'Copperplate Gothic Bold, ';text-align:center;letter-spacing:1.32292px;word-spacing:0.0185208px;text-anchor:middle;fill:#333333;stroke-width:2.25;stroke-linecap:round"
       d="M 8.6702718,14.427027 V 39.679232 H 13.40745 V 19.801375 l 4.995561,19.877857 h 4.909261 L 27.247949,24.071916 V 14.427027 H 25.413435 L 20.883479,31.652332 16.30133,14.427027 Z m 19.6535802,0 v 5.378483 l 0.001,-0.0041 v 19.877822 h 4.736661 V 14.427027 Z" />
    <path
       id="path3"
       style="fill:#ff6600;stroke-width:2.25;stroke-linecap:round"
       d="m 33.987589,14.427027 v 3.788399 a 7.1521277,8.8375578 0 0 1 7.152019,8.837703 7.1521277,8.8375578 0 0 1 -7.151502,8.837187 7.1521277,8.8375578 0 0 1 -5.17e-4,0 v 3.788916 a 10.500351,12.626102 0 0 0 5.17e-4,0 A 10.500351,12.626102 0 0 0 44.487724,27.053129 10.500351,12.626102 0 0 0 33.987589,14.427027 Z" />
    <path
       id="rect3"
       style="fill:#ff6600;stroke-width:4.45062;stroke-linecap:round"
       d="m 42.9488,35.101734 a 12.626102,10.500351 89.999999 0 1 -0.953431,1.324983 v 0.01447 h -0.01137 a 12.626102,10.500351 89.999999 0 1 -1.565278,1.580782 l 1.528071,2.18643 3.070097,-2.147673 z" />
  </g>
</svg>
