<?xml version="1.0" encoding="utf-8"?>
<svg width="351.048" height="105.56" viewBox="0 0 351.048 105.56" fill="none" xmlns="http://www.w3.org/2000/svg">
  <g>
    <g>
      <path d="M71.472 3.84L71.472 67.2L57.168 67.2L57.168 29.904L57.792 19.296L55.344 31.44L44.688 62.112L30.624 62.112L20.016 31.44L17.616 19.296L18.24 29.904L18.24 67.2L3.888 67.2L3.888 3.84L24.048 3.84L36.816 46.128L37.68 51.168L38.544 46.128L51.312 3.84L71.472 3.84ZM95.808 35.472Q95.808 40.896 98.04 45.288Q100.272 49.68 104.232 52.272Q108.192 54.864 113.424 54.864Q118.656 54.864 122.616 52.272Q126.576 49.68 128.808 45.288Q131.04 40.896 131.04 35.472Q131.04 30.048 128.808 25.68Q126.576 21.312 122.616 18.696Q118.656 16.08 113.424 16.08Q108.192 16.08 104.232 18.696Q100.272 21.312 98.04 25.68Q95.808 30.048 95.808 35.472ZM80.88 35.472Q80.88 28.56 83.328 22.584Q85.776 16.608 90.192 12.144Q94.608 7.68 100.56 5.18399Q106.512 2.68799 113.424 2.68799Q120.432 2.68799 126.36 5.18399Q132.288 7.68 136.68 12.144Q141.072 16.608 143.496 22.584Q145.92 28.56 145.92 35.472Q145.92 42.432 143.568 48.408Q141.216 54.384 136.848 58.872Q132.48 63.36 126.528 65.856Q120.576 68.352 113.424 68.352Q106.128 68.352 100.152 65.856Q94.176 63.36 89.856 58.872Q85.536 54.384 83.208 48.408Q80.88 42.432 80.88 35.472ZM154.512 3.84L168.864 3.84L168.864 54.624L191.856 54.624L191.856 67.2L154.512 67.2L154.512 3.84ZM201.312 3.84L220.368 3.84Q230.496 3.84 237.144 7.89599Q243.792 11.952 247.104 19.104Q250.416 26.256 250.416 35.472Q250.416 44.736 247.104 51.888Q243.792 59.04 237.144 63.12C232.712 65.84 227.12 67.2 220.368 67.2L201.312 67.2L201.312 3.84ZM215.616 16.56L215.616 54.48L219.072 54.48Q224.496 54.48 228.048 52.008Q231.6 49.536 233.4 45.24Q235.2 40.944 235.2 35.568Q235.2 30.144 233.448 25.848Q231.696 21.552 228.096 19.056Q224.496 16.56 219.072 16.56L215.616 16.56Z" fill="#013D5A" />
      <path d="M4.512 3.84L18.864 3.84L18.864 67.2L4.512 67.2L4.512 3.84ZM77.424 69.168Q80.16 69.168 82.344 68.52Q84.528 67.872 85.872 67.152Q87.216 66.432 87.408 66.192L92.256 75.6Q90.816 78 87.048 80.16Q83.28 82.32 77.52 82.32Q73.968 82.32 71.496 81.504Q69.024 80.688 66.912 79.608Q64.8 78.528 62.328 77.712Q59.856 76.896 56.256 76.896Q53.328 76.896 51.072 77.784Q48.816 78.672 47.544 79.584Q46.272 80.496 46.176 80.688L40.32 73.776Q43.248 70.368 48.144 68.184Q53.04 66 59.28 66Q63.264 66 66.192 66.792Q69.12 67.584 71.736 68.376Q74.352 69.168 77.424 69.168ZM42.864 35.472Q42.864 40.896 45.096 45.288Q47.328 49.68 51.288 52.272Q55.248 54.864 60.48 54.864Q65.712 54.864 69.672 52.272Q73.632 49.68 75.864 45.288Q78.096 40.896 78.096 35.472Q78.096 30.048 75.864 25.68Q73.632 21.312 69.672 18.696Q65.712 16.08 60.48 16.08Q55.248 16.08 51.288 18.696Q47.328 21.312 45.096 25.68Q42.864 30.048 42.864 35.472ZM27.936 35.472Q27.936 28.56 30.384 22.584Q32.832 16.608 37.248 12.144Q41.664 7.68 47.616 5.18399Q53.568 2.68799 60.48 2.68799Q67.488 2.68799 73.416 5.18399Q79.344 7.68 83.736 12.144Q88.128 16.608 90.552 22.584Q92.976 28.56 92.976 35.472Q92.976 42.432 90.624 48.408Q88.272 54.384 83.904 58.872Q79.536 63.36 73.584 65.856Q67.632 68.352 60.48 68.352Q53.184 68.352 47.208 65.856Q41.232 63.36 36.912 58.872Q32.592 54.384 30.264 48.408Q27.936 42.432 27.936 35.472Z" fill="#EAA221" transform="translate(255 0)" />
      <path d="M0 1.08008L274.998 0" fill="none" stroke-width="7" stroke="#013D5A" stroke-linecap="square" transform="translate(6.784 76.92)" />
    </g>
  </g>
</svg>