<?xml version="1.0" encoding="utf-8"?>
<svg width="351.048" height="105.56" viewBox="0 0 351.048 105.56" fill="none" xmlns="http://www.w3.org/2000/svg">
  <g>
    <path d="M71.472 3.84L71.472 67.2L57.168 67.2L57.168 29.904L57.792 19.296L55.344 31.44L44.688 62.112L30.624 62.112L20.016 31.44L17.616 19.296L18.24 29.904L18.24 67.2L3.888 67.2L3.888 3.84L24.048 3.84L36.816 46.128L37.68 51.168L38.544 46.128L51.312 3.84L71.472 3.84ZM95.808 35.472Q95.808 40.896 98.04 45.288Q100.272 49.68 104.232 52.272Q108.192 54.864 113.424 54.864Q118.656 54.864 122.616 52.272Q126.576 49.68 128.808 45.288Q131.04 40.896 131.04 35.472Q131.04 30.048 128.808 25.68Q126.576 21.312 122.616 18.696Q118.656 16.08 113.424 16.08Q108.192 16.08 104.232 18.696Q100.272 21.312 98.04 25.68Q95.808 30.048 95.808 35.472ZM80.88 35.472Q80.88 28.56 83.328 22.584Q85.776 16.608 90.192 12.144Q94.608 7.68 100.56 5.18399Q106.512 2.68799 113.424 2.68799Q120.432 2.68799 126.36 5.18399Q132.288 7.68 136.68 12.144Q141.072 16.608 143.496 22.584Q145.92 28.56 145.92 35.472Q145.92 42.432 143.568 48.408Q141.216 54.384 136.848 58.872Q132.48 63.36 126.528 65.856Q120.576 68.352 113.424 68.352Q106.128 68.352 100.152 65.856Q94.176 63.36 89.856 58.872Q85.536 54.384 83.208 48.408Q80.88 42.432 80.88 35.472ZM154.512 3.84L168.864 3.84L168.864 54.624L191.856 54.624L191.856 67.2L154.512 67.2L154.512 3.84ZM201.312 3.84L220.368 3.84Q230.496 3.84 237.144 7.89599Q243.792 11.952 247.104 19.104Q250.416 26.256 250.416 35.472Q250.416 44.736 247.104 51.888Q243.792 59.04 237.144 63.12C232.712 65.84 227.12 67.2 220.368 67.2L201.312 67.2L201.312 3.84ZM215.616 16.56L215.616 54.48L219.072 54.48Q224.496 54.48 228.048 52.008Q231.6 49.536 233.4 45.24Q235.2 40.944 235.2 35.568Q235.2 30.144 233.448 25.848Q231.696 21.552 228.096 19.056Q224.496 16.56 219.072 16.56L215.616 16.56Z" fill="#FFFFFF" />
    <path d="M13.401 0.719999L13.401 12.6L10.719 12.6L10.719 5.607L10.836 3.618L10.377 5.895L8.379 11.646L5.742 11.646L3.753 5.895L3.303 3.618L3.42 5.607L3.42 12.6L0.729 12.6L0.729 0.719999L4.509 0.719999L6.903 8.649L7.065 9.594L7.227 8.649L9.621 0.719999L13.401 0.719999ZM20.764 6.651Q20.764 7.668 21.1825 8.4915Q21.601 9.315 22.3435 9.801Q23.086 10.287 24.067 10.287Q25.048 10.287 25.7905 9.801Q26.533 9.315 26.9515 8.4915Q27.37 7.668 27.37 6.651Q27.37 5.634 26.9515 4.815Q26.533 3.996 25.7905 3.5055Q25.048 3.015 24.067 3.015Q23.086 3.015 22.3435 3.5055Q21.601 3.996 21.1825 4.815Q20.764 5.634 20.764 6.651ZM17.965 6.651Q17.965 5.355 18.424 4.2345Q18.883 3.114 19.711 2.277Q20.539 1.44 21.655 0.971999Q22.771 0.503999 24.067 0.503999Q25.381 0.503999 26.4925 0.971999Q27.604 1.44 28.4275 2.277Q29.251 3.114 29.7055 4.2345Q30.16 5.355 30.16 6.651Q30.16 7.956 29.719 9.0765Q29.278 10.197 28.459 11.0385Q27.64 11.88 26.524 12.348Q25.408 12.816 24.067 12.816Q22.699 12.816 21.5785 12.348Q20.458 11.88 19.648 11.0385Q18.838 10.197 18.4015 9.0765Q17.965 7.956 17.965 6.651ZM34.571 0.719999L37.262 0.719999L37.262 10.242L41.573 10.242L41.573 12.6L34.571 12.6L34.571 0.719999ZM46.146 0.719999L49.719 0.719999Q51.618 0.719999 52.8645 1.4805Q54.111 2.241 54.732 3.582Q55.353 4.923 55.353 6.651Q55.353 8.388 54.732 9.729Q54.111 11.07 52.8645 11.835C52.0335 12.345 50.985 12.6 49.719 12.6L46.146 12.6L46.146 0.719999ZM48.828 3.105L48.828 10.215L49.476 10.215Q50.493 10.215 51.159 9.7515Q51.825 9.288 52.1625 8.4825Q52.5 7.677 52.5 6.669Q52.5 5.652 52.1715 4.8465Q51.843 4.041 51.168 3.573Q50.493 3.105 49.476 3.105L48.828 3.105ZM73.589 10.152Q74.417 10.152 75.0965 9.909Q75.776 9.666 76.109 9.432L77.261 11.718Q76.838 12.078 75.8165 12.447Q74.795 12.816 73.391 12.816Q72.077 12.816 70.925 12.357Q69.773 11.898 68.8955 11.0655Q68.018 10.233 67.5185 9.1125Q67.019 7.992 67.019 6.678Q67.019 5.364 67.514 4.2345Q68.009 3.105 68.8865 2.268Q69.764 1.431 70.9205 0.9675Q72.077 0.503999 73.391 0.503999Q74.795 0.503999 75.8165 0.872998Q76.838 1.242 77.261 1.602L76.109 3.888Q75.776 3.645 75.0965 3.4065Q74.417 3.168 73.589 3.168Q72.671 3.168 71.987 3.4515Q71.303 3.735 70.844 4.23Q70.385 4.725 70.16 5.346Q69.935 5.967 69.935 6.651Q69.935 7.344 70.16 7.9695Q70.385 8.595 70.844 9.09Q71.303 9.585 71.987 9.8685Q72.671 10.152 73.589 10.152ZM85.551 0.719999L88.224 0.719999L92.913 12.6L90.042 12.6L89.178 10.215L84.606 10.215L83.733 12.6L80.853 12.6L85.551 0.719999ZM85.506 7.857L88.287 7.857L86.91 3.96L86.883 3.96L85.506 7.857ZM96.73 0.719999L99.421 0.719999L99.421 10.242L103.732 10.242L103.732 12.6L96.73 12.6L96.73 0.719999ZM114.281 10.152Q115.109 10.152 115.788 9.909Q116.468 9.666 116.801 9.432L117.953 11.718Q117.53 12.078 116.508 12.447Q115.487 12.816 114.083 12.816Q112.769 12.816 111.617 12.357Q110.465 11.898 109.587 11.0655Q108.71 10.233 108.21 9.1125Q107.711 7.992 107.711 6.678Q107.711 5.364 108.206 4.2345Q108.701 3.105 109.578 2.268Q110.456 1.431 111.612 0.9675Q112.769 0.503999 114.083 0.503999Q115.487 0.503999 116.508 0.872998Q117.53 1.242 117.953 1.602L116.801 3.888Q116.468 3.645 115.788 3.4065Q115.109 3.168 114.281 3.168Q113.363 3.168 112.679 3.4515Q111.995 3.735 111.536 4.23Q111.077 4.725 110.852 5.346Q110.627 5.967 110.627 6.651Q110.627 7.344 110.852 7.9695Q111.077 8.595 111.536 9.09Q111.995 9.585 112.679 9.8685Q113.363 10.152 114.281 10.152ZM129.258 0.719999L131.949 0.719999L131.949 8.019Q131.949 9.486 131.373 10.5615Q130.797 11.637 129.726 12.2265Q128.655 12.816 127.17 12.816Q125.676 12.816 124.596 12.2265Q123.516 11.637 122.944 10.5615Q122.373 9.486 122.373 8.019L122.373 0.719999L125.055 0.719999L125.055 7.875Q125.055 8.685 125.312 9.243Q125.568 9.801 126.045 10.0845Q126.522 10.368 127.17 10.368Q127.809 10.368 128.277 10.0845Q128.745 9.801 129.001 9.243Q129.258 8.685 129.258 7.875L129.258 0.719999ZM136.72 0.719999L139.411 0.719999L139.411 10.242L143.722 10.242L143.722 12.6L136.72 12.6L136.72 0.719999ZM152.12 0.719999L154.793 0.719999L159.482 12.6L156.611 12.6L155.747 10.215L151.175 10.215L150.302 12.6L147.422 12.6L152.12 0.719999ZM152.075 7.857L154.856 7.857L153.479 3.96L153.452 3.96L152.075 7.857ZM164.289 3.078L161.454 3.078L161.454 0.719999L169.806 0.719999L169.806 3.078L166.98 3.078L166.98 12.6L164.289 12.6L164.289 3.078ZM174.154 0.719999L176.845 0.719999L176.845 12.6L174.154 12.6L174.154 0.719999ZM184.145 6.651Q184.145 7.668 184.564 8.4915Q184.982 9.315 185.725 9.801Q186.467 10.287 187.448 10.287Q188.429 10.287 189.172 9.801Q189.914 9.315 190.333 8.4915Q190.751 7.668 190.751 6.651Q190.751 5.634 190.333 4.815Q189.914 3.996 189.172 3.5055Q188.429 3.015 187.448 3.015Q186.467 3.015 185.725 3.5055Q184.982 3.996 184.564 4.815Q184.145 5.634 184.145 6.651ZM181.346 6.651Q181.346 5.355 181.805 4.2345Q182.264 3.114 183.092 2.277Q183.92 1.44 185.036 0.971999Q186.152 0.503999 187.448 0.503999Q188.762 0.503999 189.874 0.971999Q190.985 1.44 191.809 2.277Q192.632 3.114 193.087 4.2345Q193.541 5.355 193.541 6.651Q193.541 7.956 193.1 9.0765Q192.659 10.197 191.84 11.0385Q191.021 11.88 189.905 12.348Q188.789 12.816 187.448 12.816Q186.08 12.816 184.96 12.348Q183.839 11.88 183.029 11.0385Q182.219 10.197 181.783 9.0765Q181.346 7.956 181.346 6.651ZM200.373 3.186L200.571 3.222L200.571 12.6L197.88 12.6L197.88 0.719999L201.552 0.719999L206.367 10.08L206.169 10.116L206.169 0.719999L208.86 0.719999L208.86 12.6L205.17 12.6L200.373 3.186ZM218.023 0.503999Q219.13 0.503999 219.958 0.746999Q220.786 0.99 221.29 1.26Q221.794 1.53 221.902 1.62L220.606 3.789Q220.462 3.681 220.115 3.474Q219.769 3.267 219.296 3.105Q218.824 2.943 218.311 2.943Q217.618 2.943 217.19 3.1905Q216.763 3.438 216.763 3.924Q216.763 4.257 216.992 4.5225Q217.222 4.788 217.694 5.0265Q218.167 5.265 218.896 5.544Q219.562 5.787 220.147 6.12Q220.732 6.453 221.177 6.9075Q221.623 7.362 221.884 7.956Q222.145 8.55 222.145 9.306Q222.145 10.206 221.776 10.8675Q221.407 11.529 220.772 11.961Q220.138 12.393 219.332 12.6045Q218.527 12.816 217.663 12.816Q216.439 12.816 215.471 12.537Q214.504 12.258 213.91 11.934Q213.316 11.61 213.199 11.502L214.54 9.243Q214.648 9.324 214.958 9.504Q215.269 9.684 215.719 9.8775Q216.169 10.071 216.677 10.206Q217.186 10.341 217.681 10.341Q218.509 10.341 218.923 10.0215Q219.337 9.702 219.337 9.18Q219.337 8.793 219.076 8.487Q218.815 8.181 218.293 7.9065Q217.771 7.632 216.988 7.326Q216.205 7.011 215.525 6.561Q214.846 6.111 214.423 5.436Q214 4.761 214 3.762Q214 2.763 214.562 2.0295Q215.125 1.296 216.047 0.899999Q216.97 0.503999 218.023 0.503999ZM238.464 0.503999Q239.571 0.503999 240.399 0.746999Q241.227 0.99 241.731 1.26Q242.235 1.53 242.343 1.62L241.047 3.789Q240.903 3.681 240.557 3.474Q240.21 3.267 239.738 3.105Q239.265 2.943 238.752 2.943Q238.059 2.943 237.632 3.1905Q237.204 3.438 237.204 3.924Q237.204 4.257 237.434 4.5225Q237.663 4.788 238.135 5.0265Q238.608 5.265 239.337 5.544Q240.003 5.787 240.588 6.12Q241.173 6.453 241.618 6.9075Q242.064 7.362 242.325 7.956Q242.586 8.55 242.586 9.306Q242.586 10.206 242.217 10.8675Q241.848 11.529 241.214 11.961Q240.579 12.393 239.773 12.6045Q238.968 12.816 238.104 12.816Q236.88 12.816 235.913 12.537Q234.945 12.258 234.351 11.934Q233.757 11.61 233.64 11.502L234.981 9.243Q235.089 9.324 235.4 9.504Q235.71 9.684 236.16 9.8775Q236.61 10.071 237.118 10.206Q237.627 10.341 238.122 10.341Q238.95 10.341 239.364 10.0215Q239.778 9.702 239.778 9.18Q239.778 8.793 239.517 8.487Q239.256 8.181 238.734 7.9065Q238.212 7.632 237.429 7.326Q236.646 7.011 235.967 6.561Q235.287 6.111 234.864 5.436Q234.441 4.761 234.441 3.762Q234.441 2.763 235.003 2.0295Q235.566 1.296 236.488 0.899999Q237.411 0.503999 238.464 0.503999ZM247.105 0.719999L249.796 0.719999L249.796 12.6L247.105 12.6L247.105 0.719999ZM267.329 0.719999L267.329 12.6L264.647 12.6L264.647 5.607L264.764 3.618L264.305 5.895L262.307 11.646L259.67 11.646L257.681 5.895L257.231 3.618L257.348 5.607L257.348 12.6L254.657 12.6L254.657 0.719999L258.437 0.719999L260.831 8.649L260.993 9.594L261.155 8.649L263.549 0.719999L267.329 0.719999ZM272.289 0.719999L276.609 0.719999Q277.752 0.719999 278.67 1.1205Q279.588 1.521 280.133 2.3355Q280.677 3.15 280.677 4.374Q280.677 5.589 280.133 6.4395Q279.588 7.29 278.67 7.7355Q277.752 8.181 276.609 8.181L274.98 8.181L274.98 12.6L272.289 12.6L272.289 0.719999ZM274.98 6.057L275.862 6.057Q276.411 6.057 276.848 5.895Q277.284 5.733 277.545 5.3775Q277.806 5.022 277.806 4.437Q277.806 3.843 277.545 3.4965Q277.284 3.15 276.848 2.997Q276.411 2.844 275.862 2.844L274.98 2.844L274.98 6.057ZM285.097 0.719999L287.788 0.719999L287.788 10.242L292.099 10.242L292.099 12.6L285.097 12.6L285.097 0.719999ZM296.744 0.719999L299.435 0.719999L299.435 12.6L296.744 12.6L296.744 0.719999ZM304.386 0.719999L311.253 0.719999L311.253 3.078L307.077 3.078L307.077 5.472L310.938 5.472L310.938 7.821L307.077 7.821L307.077 12.6L304.386 12.6L304.386 0.719999ZM315.853 0.719999L318.544 0.719999L318.544 12.6L315.853 12.6L315.853 0.719999ZM323.423 0.719999L331.01 0.719999L331.01 3.078L326.105 3.078L326.105 5.499L330.965 5.499L330.965 7.785L326.105 7.785L326.105 10.242L331.01 10.242L331.01 12.6L323.423 12.6L323.423 0.719999ZM335.871 0.719999L339.444 0.719999Q341.343 0.719999 342.59 1.4805Q343.836 2.241 344.457 3.582Q345.078 4.923 345.078 6.651Q345.078 8.388 344.457 9.729Q343.836 11.07 342.59 11.835C341.759 12.345 340.71 12.6 339.444 12.6L335.871 12.6L335.871 0.719999ZM338.553 3.105L338.553 10.215L339.201 10.215Q340.218 10.215 340.884 9.7515Q341.55 9.288 341.888 8.4825Q342.225 7.677 342.225 6.669Q342.225 5.652 341.897 4.8465Q341.568 4.041 340.893 3.573Q340.218 3.105 339.201 3.105L338.553 3.105Z" transform="translate(0 89)" fill="#FFFFFF" />
    <path d="M4.512 3.84L18.864 3.84L18.864 67.2L4.512 67.2L4.512 3.84ZM77.424 69.168Q80.16 69.168 82.344 68.52Q84.528 67.872 85.872 67.152Q87.216 66.432 87.408 66.192L92.256 75.6Q90.816 78 87.048 80.16Q83.28 82.32 77.52 82.32Q73.968 82.32 71.496 81.504Q69.024 80.688 66.912 79.608Q64.8 78.528 62.328 77.712Q59.856 76.896 56.256 76.896Q53.328 76.896 51.072 77.784Q48.816 78.672 47.544 79.584Q46.272 80.496 46.176 80.688L40.32 73.776Q43.248 70.368 48.144 68.184Q53.04 66 59.28 66Q63.264 66 66.192 66.792Q69.12 67.584 71.736 68.376Q74.352 69.168 77.424 69.168ZM42.864 35.472Q42.864 40.896 45.096 45.288Q47.328 49.68 51.288 52.272Q55.248 54.864 60.48 54.864Q65.712 54.864 69.672 52.272Q73.632 49.68 75.864 45.288Q78.096 40.896 78.096 35.472Q78.096 30.048 75.864 25.68Q73.632 21.312 69.672 18.696Q65.712 16.08 60.48 16.08Q55.248 16.08 51.288 18.696Q47.328 21.312 45.096 25.68Q42.864 30.048 42.864 35.472ZM27.936 35.472Q27.936 28.56 30.384 22.584Q32.832 16.608 37.248 12.144Q41.664 7.68 47.616 5.18399Q53.568 2.68799 60.48 2.68799Q67.488 2.68799 73.416 5.18399Q79.344 7.68 83.736 12.144Q88.128 16.608 90.552 22.584Q92.976 28.56 92.976 35.472Q92.976 42.432 90.624 48.408Q88.272 54.384 83.904 58.872Q79.536 63.36 73.584 65.856Q67.632 68.352 60.48 68.352Q53.184 68.352 47.208 65.856Q41.232 63.36 36.912 58.872Q32.592 54.384 30.264 48.408Q27.936 42.432 27.936 35.472Z" fill="#EAA221" transform="translate(255 0)" />
    <path d="M0 1.08008L274.998 0" fill="none" stroke-width="7" stroke="#FFFFFF" stroke-linecap="square" transform="translate(6.784 76.92)" />
  </g>
</svg>